<?xml version="1.0" standalone="no"?>
<!DOCTYPE svg PUBLIC "-//W3C//DTD SVG 20010904//EN"
 "http://www.w3.org/TR/2001/REC-SVG-20010904/DTD/svg10.dtd">
<svg version="1.0" xmlns="http://www.w3.org/2000/svg"
 width="128.000000pt" height="128.000000pt" viewBox="0 0 128.000000 128.000000"
 preserveAspectRatio="xMidYMid meet">

<g transform="translate(0.000000,128.000000) scale(0.100000,-0.100000)"
fill="#515151" stroke="none">
<path d="M0 640 l0 -640 640 0 640 0 0 640 0 640 -640 0 -640 0 0 -640z m954
223 c0 -29 -15 -71 -43 -128 l-42 -85 -57 -1 -57 -1 43 -10 c23 -5 42 -12 42
-16 0 -4 -11 -20 -25 -35 -22 -22 -35 -27 -78 -28 l-52 -1 39 -11 40 -12 -39
-33 c-29 -24 -50 -32 -80 -33 -34 -1 -36 -2 -15 -8 23 -7 21 -10 -35 -38 -77
-39 -157 -63 -212 -63 l-44 0 43 62 c24 33 80 106 126 161 46 54 81 101 78
104 -3 3 -29 -6 -58 -20 -64 -32 -154 -121 -203 -202 l-37 -60 5 48 c5 56 52
154 107 229 102 136 307 230 490 225 l65 -2 -1 -42z m-412 -215 c-150 -188
-199 -256 -237 -329 -26 -49 -50 -87 -56 -84 -15 10 -11 26 40 130 59 123 114
197 187 253 54 41 88 56 66 30z"/>
</g>
</svg>
